<?xml version="1.0" encoding="UTF-8"?>
<svg xmlns="http://www.w3.org/2000/svg" width="521" height="515">
  <defs>
    <clipPath id="a" clipPathUnits="userSpaceOnUse">
      <path d="m294.668 28.832 47.172 100.5a37.61 37.61 0 0 0 28.36 21.188l108.48 16.57c30.25 4.633 42.597 41.52 21.23 63.422l-80.84 82.86a37.6 37.6 0 0 0-10.191 32.3l18.75 114.98c5.05 30.97-27.828 54.141-55.29 38.95l-93.51-51.692a37.64 37.64 0 0 0-36.38 0l-93.512 51.692c-27.468 15.191-60.347-7.98-55.289-38.95l18.75-114.98a37.57 37.57 0 0 0-10.199-32.3l-80.84-82.86C0 208.609 12.348 171.722 42.598 167.09l108.48-16.57a37.6 37.6 0 0 0 28.352-21.188l47.18-100.5C240.14 0 281.14 0 294.667 28.832m0 0"/>
    </clipPath>
  </defs>
  <g clip-path="url(#a)">
    <path d="M0 0h521v521H0z"/>
  </g>
</svg>

